<?xml version="1.0" encoding="UTF-8" standalone="no"?>
<!DOCTYPE svg PUBLIC "-//W3C//DTD SVG 1.1//EN" "http://www.w3.org/Graphics/SVG/1.1/DTD/svg11.dtd">
<svg width="100%" height="100%" viewBox="0 0 1920 900" version="1.1" xmlns="http://www.w3.org/2000/svg" xmlns:xlink="http://www.w3.org/1999/xlink" xml:space="preserve" xmlns:serif="http://www.serif.com/" style="fill-rule:evenodd;clip-rule:evenodd;stroke-linejoin:round;stroke-miterlimit:2;">
    <g id="GaMR-Logo" serif:id="GaMR Logo" transform="matrix(1,0,0,1,-1.13687e-13,-90)">
        <g id="Controller-M" serif:id="Controller M" transform="matrix(1,0,0,1,7.46892,67.5602)">
            <g id="Controller_half">
                <path d="M988.015,531.464C966.578,561.204 973.272,622.565 944.048,662.375C916.604,699.759 843.856,689.246 828.293,645.804C813.215,603.718 873.408,443.941 852.945,410.092C821.131,357.465 859.025,311.218 874.587,307.495C885.241,304.945 888.957,303.382 889.453,299.249C894.087,260.608 949.653,276.647 953.071,278.544C964.656,284.972 959.245,290.593 981.139,298.604C1004.45,307.132 1125.78,305.431 1125.78,305.431L1125.78,493.706C1099.63,493.706 1079.46,494.123 1063.54,495.211C1064.66,498.958 1065.24,502.921 1065.24,507.018C1065.24,530.476 1046.2,549.52 1022.74,549.52C1008.39,549.52 995.697,542.397 988.015,531.464ZM1022.74,479.306C1038.03,479.306 1050.45,491.723 1050.45,507.018C1050.45,522.313 1038.03,534.73 1022.74,534.73C1007.44,534.73 995.027,522.313 995.027,507.018C995.027,491.723 1007.44,479.306 1022.74,479.306Z" style="fill:rgb(0,160,255);"/>
            </g>
            <g id="Controller_half1" serif:id="Controller_half" transform="matrix(-1,0,0,1,2248.55,0)">
                <path d="M988.015,531.464C966.578,561.204 973.272,622.565 944.048,662.375C916.604,699.759 843.856,689.246 828.293,645.804C813.215,603.718 873.408,443.941 852.945,410.092C821.131,357.465 859.025,311.218 874.587,307.495C885.241,304.945 888.957,303.382 889.453,299.249C894.087,260.608 949.653,276.647 953.071,278.544C964.656,284.972 959.245,290.593 981.139,298.604C1004.45,307.132 1125.78,305.431 1125.78,305.431L1125.78,493.706C1099.63,493.706 1079.46,494.123 1063.54,495.211C1064.66,498.958 1065.24,502.921 1065.24,507.018C1065.24,530.476 1046.2,549.52 1022.74,549.52C1008.39,549.52 995.697,542.397 988.015,531.464ZM1022.74,479.306C1038.03,479.306 1050.45,491.723 1050.45,507.018C1050.45,522.313 1038.03,534.73 1022.74,534.73C1007.44,534.73 995.027,522.313 995.027,507.018C995.027,491.723 1007.44,479.306 1022.74,479.306Z" style="fill:rgb(0,160,255);"/>
            </g>
            <rect x="928.333" y="337.369" width="45.444" height="133.393" style="fill:white;"/>
            <g transform="matrix(6.12323e-17,1,-1,6.12323e-17,1355.12,-546.99)">
                <rect x="928.333" y="337.369" width="45.444" height="133.393" style="fill:white;"/>
            </g>
            <g transform="matrix(0.830592,0,0,0.830592,222.863,63.5355)">
                <circle cx="1319.38" cy="359.356" r="21.987" style="fill:white;"/>
            </g>
            <g transform="matrix(0.830592,0,0,0.830592,222.863,149.719)">
                <circle cx="1319.38" cy="359.356" r="21.987" style="fill:white;"/>
            </g>
            <g transform="matrix(0.830592,0,0,0.830592,176.328,105.587)">
                <circle cx="1319.38" cy="359.356" r="21.987" style="fill:white;"/>
            </g>
            <g transform="matrix(0.830592,0,0,0.830592,266.812,105.587)">
                <circle cx="1319.38" cy="359.356" r="21.987" style="fill:white;"/>
            </g>
        </g>
        <g transform="matrix(0.969414,0,0,0.969414,2.25396,101.929)">
            <text x="45.004px" y="660.764px" style="font-family:'ArialMT', 'Arial', sans-serif;font-size:588.422px;fill:rgb(117,118,124);">Ga</text>
        </g>
        <g transform="matrix(0.969414,0,0,0.969414,1395.43,101.929)">
            <text x="45.004px" y="660.764px" style="font-family:'ArialMT', 'Arial', sans-serif;font-size:588.422px;fill:rgb(117,118,124);">R</text>
        </g>
    </g>
</svg>
